<svg width="130" height="53" viewBox="0 0 130 53" fill="none" xmlns="http://www.w3.org/2000/svg">
<g clip-path="url(#clip0_8801_1045)">
<path d="M130 0.0600586H0V52.0601H130V0.0600586Z" fill="#EC1D24"/>
<path d="M126.222 40.1191V48.0251H111.58V4.06006H119.465V40.1191H126.222ZM63.658 25.6191C63.048 25.9131 62.41 26.0591 61.788 26.0611V11.9211H61.828C62.45 11.9161 67.092 12.1051 67.092 18.9141C67.092 22.4731 65.512 24.7181 63.658 25.6191ZM40.55 34.3001L42.733 15.5011L44.998 34.3001H40.55ZM110.205 12.0851V4.06706H87.879L84.204 30.8461L80.574 4.06606H72.522L73.423 11.2161C72.495 9.38406 69.199 4.06606 61.943 4.06606C61.896 4.06406 53.883 4.06606 53.883 4.06606L53.852 43.0981L47.984 4.06706L37.439 4.06206L31.367 44.5021L31.369 4.06706H21.278L17.64 26.7841L14.096 4.06606H4V48.0321H11.95V26.8401L15.568 48.0321H19.794L23.359 26.8401V48.0321H38.686L39.614 41.2701H45.784L46.711 48.0321L61.758 48.0401H61.768V48.0321H61.788V33.7621L63.633 33.4921L67.45 48.0421H75.234L75.232 48.0321H75.254L70.243 30.9841C72.781 29.1041 75.649 24.3401 74.886 19.7811V19.7791C74.894 19.8371 79.615 48.0601 79.615 48.0601L88.871 48.0331L95.198 8.18306V48.0331H110.205V40.1251H103.081V30.0451H110.205V22.0151H103.081V12.0841L110.205 12.0851Z" fill="#FEFEFE"/>
<path d="M0 0.0600586H30V52.0601H0V0.0600586Z" fill="#EC1D24"/>
<path d="M31.5 48.0601V4.06006H21.291L17.651 26.7951L14.102 4.06006H4V48.0601H12V26.8521L15.577 48.0601H19.806L23.374 26.8521V48.0601H31.5Z" fill="#FEFEFE"/>
</g>
<defs>
<clipPath id="clip0_8801_1045">
<rect width="130" height="52" fill="white" transform="translate(0 0.0600586)"/>
</clipPath>
</defs>
</svg>
